<svg width="162" height="44" viewBox="0 0 162 44" fill="none" xmlns="http://www.w3.org/2000/svg">
<g id="HORIZONTAL LOGO" clip-path="url(#clip0_1415_11437)">
<g id="HORIZONTAL LOGO_2">
<g id="Group 20151">
<path id="Vector" fill-rule="evenodd" clip-rule="evenodd" d="M15.6794 26.1517L8.82196 30.1111C15.2801 33.8051 20.649 36.9142 25.8042 39.8896L18.9213 43.8503C13.4199 40.6608 7.89283 37.4982 2.39139 34.3095L2.33815 34.283C1.648 33.8842 1.11595 33.2998 0.717767 32.6615C0.265687 31.8921 0.0267109 31.0148 2.26153e-06 30.1111C2.26153e-06 29.2339 0.238956 28.3302 0.69038 27.5329C1.08945 26.8946 1.648 26.3372 2.36488 25.9114C10.47 20.5704 21.9508 14.1663 32.4207 8.34619L37.6026 11.3492L39.4374 12.4121L22.5347 22.1919L37.6026 30.881V33.0608L32.6332 35.931L15.6794 26.1517ZM25.7247 4.49277L18.8151 0.47998L9.40808 5.92742L5.68716 8.05324C4.59792 8.7179 3.48086 9.38254 2.33815 10.0729C1.19569 10.7641 0.29219 12.0137 0 13.2096V19.3482L25.7247 4.49277Z" fill="url(#paint0_linear_1415_11437)"/>
<path id="Vector_2" fill-rule="evenodd" clip-rule="evenodd" d="M25.7775 39.8896L8.82181 30.1111L5.92599 31.7578H5.95269C5.634 31.9981 5.39416 32.2635 5.2082 32.582C4.94274 33.0343 4.81024 33.5387 4.81024 34.0706C4.81024 34.575 4.94274 35.0807 5.2082 35.5317C5.42155 35.878 5.68701 36.17 6.0057 36.3824L2.2055 34.2035L2.17877 34.177C2.12578 34.1505 2.07254 34.124 2.01953 34.0706C2.12578 34.1505 2.232 34.23 2.338 34.283L2.39124 34.3095L18.9212 43.8503L25.7775 39.8896ZM32.633 35.931L34.9456 34.6015L35.1854 34.469L37.6024 33.0608L39.4903 31.9707L22.5345 22.1919L15.6793 26.1517L32.633 35.931Z" fill="url(#paint1_linear_1415_11437)"/>
</g>
<path id="Vector_3" d="M61.0705 23.388L58.6783 25.8333V29.6594H55.9141V14.6978H58.6783V22.3517L66.0932 14.6978H69.2023L62.9299 21.3684L69.6003 29.6594H66.3312L61.0705 23.388ZM82.4097 29.8727C80.8678 29.8727 79.513 29.5264 78.2641 28.8621C77.0411 28.1982 76.0852 27.2945 75.3939 26.1253C74.7029 24.9287 74.331 23.627 74.331 22.1657C74.331 20.7302 74.7029 19.4017 75.3939 18.2325C76.0852 17.0627 77.0411 16.1325 78.2641 15.4686C79.513 14.8048 80.8678 14.4854 82.4097 14.4854C83.9239 14.4854 85.3064 14.8048 86.5286 15.4686C87.7508 16.1325 88.7076 17.0371 89.3988 18.206C90.1166 19.3752 90.4616 20.7037 90.4616 22.1657C90.4616 23.627 90.1166 24.9561 89.3988 26.1253C88.7076 27.2945 87.7508 28.1982 86.5286 28.8621C85.3064 29.5264 83.9239 29.8727 82.4097 29.8727ZM82.4097 27.427C83.393 27.427 84.2956 27.215 85.094 26.7635C85.8904 26.3112 86.5286 25.6734 86.9801 24.8757C87.4321 24.0793 87.6446 23.1756 87.6446 22.1657C87.6446 21.1825 87.4321 20.2788 86.9801 19.4547C86.5286 18.6575 85.8904 18.0457 85.094 17.5945C84.2956 17.1431 83.393 16.9035 82.4097 16.9035C81.3998 16.9035 80.4963 17.1431 79.6988 17.5945C78.9013 18.0457 78.2897 18.6575 77.8385 19.4547C77.3606 20.2788 77.1473 21.1825 77.1473 22.1657C77.1473 23.1756 77.3606 24.0793 77.8385 24.8757C78.2897 25.6734 78.9013 26.3112 79.6988 26.7635C80.4963 27.215 81.3998 27.427 82.4097 27.427ZM107.656 29.6594L104.599 25.275C104.467 25.275 104.281 25.3015 104.014 25.3015H100.64V29.6594H97.8491V14.6978H104.014C105.317 14.6978 106.433 14.9112 107.416 15.3358C108.373 15.7608 109.09 16.3723 109.622 17.1696C110.127 17.9671 110.393 18.9229 110.393 20.0126C110.393 21.1293 110.101 22.1127 109.569 22.9092C109.011 23.733 108.24 24.3448 107.204 24.7436L110.632 29.6594H107.656ZM107.576 20.0126C107.576 19.0568 107.283 18.3123 106.645 17.8079C106.008 17.3025 105.104 17.0371 103.882 17.0371H100.64V23.0152H103.882C105.104 23.0152 106.008 22.7498 106.645 22.2189C107.283 21.7136 107.576 20.9702 107.576 20.0126ZM117.94 14.6978H124.477C126.072 14.6978 127.48 14.9898 128.73 15.628C129.979 16.2396 130.935 17.1157 131.627 18.2591C132.29 19.3752 132.636 20.6769 132.636 22.1657C132.636 23.6535 132.29 24.9561 131.627 26.0988C130.935 27.215 129.979 28.0922 128.73 28.73C127.48 29.3409 126.072 29.6594 124.477 29.6594H117.94V14.6978ZM124.344 27.2945C125.461 27.2945 126.417 27.082 127.241 26.6562C128.092 26.2582 128.73 25.6465 129.181 24.8757C129.607 24.1058 129.845 23.2021 129.845 22.1657C129.845 21.1558 129.607 20.2525 129.181 19.4547C128.73 18.684 128.092 18.0989 127.241 17.6742C126.417 17.2493 125.461 17.0371 124.344 17.0371H120.73V27.2945H124.344ZM140.05 14.6978H142.814V29.6594H140.05V14.6978ZM155.969 29.8727C154.799 29.8727 153.684 29.7132 152.62 29.3674C151.53 29.0489 150.681 28.6231 150.069 28.0652L151.026 25.9119C151.636 26.3907 152.382 26.7892 153.284 27.1085C154.161 27.4009 155.065 27.5599 155.969 27.5599C157.058 27.5599 157.909 27.3744 158.44 27.029C158.998 26.6562 159.265 26.2052 159.265 25.62C159.265 25.195 159.104 24.8227 158.812 24.5572C158.494 24.2648 158.121 24.0519 157.642 23.8925C157.164 23.733 156.527 23.574 155.729 23.3615C154.586 23.0956 153.656 22.8306 152.966 22.5638C152.248 22.2719 151.636 21.8729 151.132 21.2887C150.628 20.7037 150.388 19.9336 150.388 18.9505C150.388 18.1266 150.6 17.3556 151.052 16.691C151.505 16.0006 152.168 15.4686 153.072 15.0704C153.976 14.6713 155.091 14.4854 156.393 14.4854C157.324 14.4854 158.227 14.5917 159.104 14.8305C159.982 15.043 160.752 15.3624 161.39 15.8138L160.513 17.9671C159.849 17.568 159.157 17.2758 158.466 17.0901C157.748 16.8776 157.058 16.797 156.393 16.797C155.277 16.797 154.48 16.9838 153.949 17.329C153.39 17.7007 153.125 18.206 153.125 18.8167C153.125 19.2425 153.284 19.5877 153.603 19.8532C153.896 20.146 154.294 20.3585 154.773 20.4914C155.224 20.6504 155.862 20.8364 156.686 21.0489C157.802 21.2887 158.706 21.5542 159.424 21.8472C160.141 22.1127 160.752 22.5373 161.257 23.1226C161.762 23.68 162.001 24.4508 162.001 25.4075C162.001 26.2582 161.789 27.0016 161.337 27.6664C160.885 28.3307 160.194 28.8621 159.29 29.2609C158.387 29.6594 157.271 29.8727 155.969 29.8727Z" fill="#1A1E2A"/>
</g>
</g>
<defs>
<linearGradient id="paint0_linear_1415_11437" x1="5.37442" y1="4.89468" x2="40.5001" y2="29.0796" gradientUnits="userSpaceOnUse">
<stop stop-color="#FE5D5C"/>
<stop offset="1" stop-color="#8F1B53"/>
</linearGradient>
<linearGradient id="paint1_linear_1415_11437" x1="12.476" y1="16.0276" x2="1.91906" y2="34.2622" gradientUnits="userSpaceOnUse">
<stop stop-color="#FE5D5C"/>
<stop offset="1" stop-color="#8F1B68"/>
</linearGradient>
<clipPath id="clip0_1415_11437">
<rect width="162" height="43" fill="white" transform="translate(0 0.5)"/>
</clipPath>
</defs>
</svg>
